<svg enable-background="new 0 0 36 60" height="512" viewBox="0 0 36 60" width="512" xmlns="http://www.w3.org/2000/svg"><path d="m32.998 1h-29.996c-1.106 0-2.002.896-2.002 2.002v47.998h34v-47.998c0-1.106-.896-2.002-2.002-2.002z" fill="#63afdb"/><path d="m32.544 59h-29.088c-1.357 0-2.456-1.099-2.456-2.456v-9.544h34v9.544c0 1.357-1.099 2.456-2.456 2.456z" fill="#eaeff0"/><circle cx="18" cy="53" fill="#b8bec3" r="3"/><path d="m7 13h22v6h-22z" fill="#fff"/><g fill="#4d007e"><path d="m11 28h-4c-.552 0-1-.447-1-1s.448-1 1-1h4c.552 0 1 .447 1 1s-.448 1-1 1z"/><path d="m20 28h-4c-.552 0-1-.447-1-1s.448-1 1-1h4c.552 0 1 .447 1 1s-.448 1-1 1z"/><path d="m29 28h-4c-.552 0-1-.447-1-1s.448-1 1-1h4c.552 0 1 .447 1 1s-.448 1-1 1z"/><path d="m11 33h-4c-.552 0-1-.447-1-1s.448-1 1-1h4c.552 0 1 .447 1 1s-.448 1-1 1z"/><path d="m20 33h-4c-.552 0-1-.447-1-1s.448-1 1-1h4c.552 0 1 .447 1 1s-.448 1-1 1z"/><path d="m29 33h-4c-.552 0-1-.447-1-1s.448-1 1-1h4c.552 0 1 .447 1 1s-.448 1-1 1z"/><path d="m11 38h-4c-.552 0-1-.447-1-1s.448-1 1-1h4c.552 0 1 .447 1 1s-.448 1-1 1z"/><path d="m20 38h-4c-.552 0-1-.447-1-1s.448-1 1-1h4c.552 0 1 .447 1 1s-.448 1-1 1z"/><path d="m20 43h-4c-.552 0-1-.447-1-1s.448-1 1-1h4c.552 0 1 .447 1 1s-.448 1-1 1z"/><path d="m29 38h-4c-.552 0-1-.447-1-1s.448-1 1-1h4c.552 0 1 .447 1 1s-.448 1-1 1z"/><path d="m29 20h-22c-.552 0-1-.447-1-1v-6c0-.553.448-1 1-1h22c.552 0 1 .447 1 1v6c0 .553-.448 1-1 1zm-21-2h20v-4h-20z"/><path d="m21 6h-6c-.552 0-1-.447-1-1s.448-1 1-1h6c.552 0 1 .447 1 1s-.448 1-1 1z"/><path d="m33.002 60h-30.004c-1.653 0-2.998-1.345-2.998-2.997v-10.003c0-.553.448-1 1-1h34c.552 0 1 .447 1 1v10.003c0 1.652-1.345 2.997-2.998 2.997zm-31.002-12v9.003c0 .55.447.997.998.997h30.005c.55 0 .997-.447.997-.997v-9.003z"/><path d="m18 57c-2.206 0-4-1.794-4-4s1.794-4 4-4 4 1.794 4 4-1.794 4-4 4zm0-6c-1.103 0-2 .897-2 2s.897 2 2 2 2-.897 2-2-.897-2-2-2z"/><path d="m33.002 60h-30.004c-1.653 0-2.998-1.345-2.998-2.997v-54.001c0-1.655 1.347-3.002 3.001-3.002h29.997c1.655 0 3.002 1.347 3.002 3.002v54.001c0 1.652-1.345 2.997-2.998 2.997zm-30.001-58c-.552 0-1.001.449-1.001 1.002v54.001c0 .55.447.997.998.997h30.005c.55 0 .997-.447.997-.997v-54.001c0-.553-.449-1.002-1.001-1.002z"/></g></svg>